name C:/MyDriveSym/Projects/mobilecap/Data\Session20210820_0001\mocap\ForceDataProcessed\DJ3_forces.mot
datacolumns 28
datarows 10
range 1.34950000 1.35400000
endheader 
time	R_ground_force_vx	R_ground_force_vy	R_ground_force_vz	R_ground_force_px	R_ground_force_py	R_ground_force_pz	R_ground_torque_x	R_ground_torque_y	R_ground_torque_z	L_ground_force_vx	L_ground_force_vy	L_ground_force_vz	L_ground_force_px	L_ground_force_py	L_ground_force_pz	L_ground_torque_x	L_ground_torque_y	L_ground_torque_z	3_ground_force_vx	3_ground_force_vy	3_ground_force_vz	3_ground_force_px	3_ground_force_py	3_ground_force_pz	3_ground_torque_x	3_ground_torque_y	3_ground_torque_z	
          1.34950000	       -330.04345600	       1333.30517000	       -181.95185700	         -0.16580400	          0.00600000	         -0.42618800	          0.00000000	         13.71707400	          0.00000000	       -157.89339800	       1145.97650700	        109.12415300	         -0.17462400	          0.00600000	         -0.71395600	          0.00000000	         -3.62195100	          0.00000000	          0.00000000	          0.00000000	          0.00000000	          0.00000000	          0.00000000	          0.00000000	          0.00000000	          0.00000000	          0.00000000	
          1.35000000	       -334.17475100	       1346.24984600	       -182.80454800	         -0.16624100	          0.00600000	         -0.42621400	          0.00000000	         13.50684400	          0.00000000	       -163.47092200	       1159.32246000	        109.81428900	         -0.17499500	          0.00600000	         -0.71386200	          0.00000000	         -3.40009300	          0.00000000	          0.00000000	          0.00000000	          0.00000000	          0.00000000	          0.00000000	          0.00000000	          0.00000000	          0.00000000	          0.00000000	
          1.35050000	       -338.61329200	       1359.12895500	       -183.56164400	         -0.16669000	          0.00600000	         -0.42624400	          0.00000000	         13.27600200	          0.00000000	       -169.49415800	       1172.47778200	        110.50392500	         -0.17534800	          0.00600000	         -0.71376700	          0.00000000	         -3.16687300	          0.00000000	          0.00000000	          0.00000000	          0.00000000	          0.00000000	          0.00000000	          0.00000000	          0.00000000	          0.00000000	          0.00000000	
          1.35100000	       -343.30402600	       1371.92777100	       -184.22132600	         -0.16715200	          0.00600000	         -0.42628000	          0.00000000	         13.02475600	          0.00000000	       -175.90989100	       1185.40411200	        111.18336000	         -0.17568400	          0.00600000	         -0.71367100	          0.00000000	         -2.92233900	          0.00000000	          0.00000000	          0.00000000	          0.00000000	          0.00000000	          0.00000000	          0.00000000	          0.00000000	          0.00000000	          0.00000000	
          1.35150000	       -348.19299100	       1384.63381300	       -184.78180800	         -0.16763100	          0.00600000	         -0.42632100	          0.00000000	         12.75336500	          0.00000000	       -182.66289700	       1198.06365300	        111.84197900	         -0.17600600	          0.00600000	         -0.71357400	          0.00000000	         -2.66656500	          0.00000000	          0.00000000	          0.00000000	          0.00000000	          0.00000000	          0.00000000	          0.00000000	          0.00000000	          0.00000000	          0.00000000	
          1.35200000	       -353.22787000	       1397.23690200	       -185.24136100	         -0.16812800	          0.00600000	         -0.42636700	          0.00000000	         12.46215200	          0.00000000	       -189.69639300	       1210.41966300	        112.46869900	         -0.17631400	          0.00600000	         -0.71347400	          0.00000000	         -2.39961200	          0.00000000	          0.00000000	          0.00000000	          0.00000000	          0.00000000	          0.00000000	          0.00000000	          0.00000000	          0.00000000	          0.00000000	
          1.35250000	       -358.35841900	       1409.72920300	       -185.59842500	         -0.16864700	          0.00600000	         -0.42642000	          0.00000000	         12.15152400	          0.00000000	       -196.95260500	       1222.43676800	        113.05242000	         -0.17660900	          0.00600000	         -0.71337200	          0.00000000	         -2.12151200	          0.00000000	          0.00000000	          0.00000000	          0.00000000	          0.00000000	          0.00000000	          0.00000000	          0.00000000	          0.00000000	          0.00000000	
          1.35300000	       -363.53677000	       1422.10533300	       -185.85175500	         -0.16919000	          0.00600000	         -0.42647800	          0.00000000	         11.82199100	          0.00000000	       -204.37345300	       1234.08119500	        113.58241300	         -0.17689300	          0.00600000	         -0.71326600	          0.00000000	         -1.83226600	          0.00000000	          0.00000000	          0.00000000	          0.00000000	          0.00000000	          0.00000000	          0.00000000	          0.00000000	          0.00000000	          0.00000000	
          1.35350000	       -368.71760600	       1434.36250300	       -186.00055700	         -0.16975800	          0.00600000	         -0.42654300	          0.00000000	         11.47413400	          0.00000000	       -211.90131400	       1245.32101400	        114.04858700	         -0.17716700	          0.00600000	         -0.71315800	          0.00000000	         -1.53189000	          0.00000000	          0.00000000	          0.00000000	          0.00000000	          0.00000000	          0.00000000	          0.00000000	          0.00000000	          0.00000000	          0.00000000	
          1.35400000	       -373.85822500	       1446.50064900	       -186.04455200	         -0.17035500	          0.00600000	         -0.42661500	          0.00000000	         11.10855500	          0.00000000	       -219.47977100	       1256.12642200	        114.44156600	         -0.17743100	          0.00600000	         -0.71304600	          0.00000000	         -1.22049100	          0.00000000	          0.00000000	          0.00000000	          0.00000000	          0.00000000	          0.00000000	          0.00000000	          0.00000000	          0.00000000	          0.00000000	
